<svg width="27" height="26" viewBox="0 0 27 26" fill="none" xmlns="http://www.w3.org/2000/svg">
<g clip-path="url(#clip0_296_6939)">
<path d="M8.39628 25.5133C7.88987 25.1722 7.44103 24.7508 7.06704 24.2653C6.65566 23.7641 6.2745 23.2383 5.92563 22.6906C5.10696 21.4766 4.46494 20.1498 4.01926 18.7508C3.48388 17.1258 3.22461 15.5683 3.22461 14.0448C3.22461 12.3435 3.58822 10.8582 4.2994 9.61021C4.82658 8.63475 5.60168 7.8196 6.5445 7.24908C7.4582 6.67462 8.50805 6.36025 9.58345 6.33908C9.95991 6.33908 10.3653 6.39433 10.7955 6.49996C11.1045 6.58852 11.481 6.72827 11.9409 6.90215C12.5261 7.13046 12.848 7.27021 12.9571 7.30433C13.2999 7.43108 13.588 7.48633 13.8144 7.48633C13.9862 7.48633 14.2286 7.43108 14.5039 7.34658C14.6588 7.29133 14.951 7.19383 15.3692 7.01265C15.7834 6.8599 16.1092 6.72908 16.3685 6.63158C16.7658 6.51296 17.1503 6.40327 17.4931 6.34802C17.8994 6.28318 18.3118 6.266 18.722 6.29683C19.4328 6.34386 20.133 6.49635 20.8001 6.7494C21.891 7.19383 22.7731 7.88771 23.4297 8.87408C23.1522 9.04722 22.8917 9.24693 22.6519 9.47046C22.1298 9.93893 21.6852 10.4889 21.3347 11.0995C20.8766 11.934 20.6391 12.8741 20.6452 13.8287C20.6621 15.0011 20.959 16.0338 21.5442 16.9268C21.9744 17.5886 22.5335 18.1545 23.1873 18.59C23.522 18.8183 23.8102 18.9751 24.0863 19.0807C23.9571 19.487 23.819 19.8802 23.6561 20.2702C23.2865 21.1448 22.8386 21.9833 22.318 22.7751C21.854 23.4568 21.4904 23.9646 21.2143 24.3026C20.7841 24.8186 20.3699 25.2126 19.9517 25.4873C19.4917 25.796 18.9483 25.961 18.3961 25.961C18.0221 25.9755 17.6482 25.9297 17.2884 25.8253C16.9794 25.7196 16.6735 25.6051 16.3725 25.4743C16.0596 25.3288 15.7369 25.2058 15.4069 25.1062C14.5911 24.8941 13.7358 24.8927 12.9194 25.1021C12.5847 25.1996 12.2628 25.3134 11.9449 25.4531C11.4978 25.6433 11.2009 25.7708 11.0291 25.8253C10.6863 25.9268 10.3307 25.9902 9.97114 26.0113C9.41489 26.0113 8.89635 25.8505 8.38264 25.5246L8.39628 25.5133ZM15.7328 5.51358C15.0056 5.88165 14.3112 6.03846 13.6217 5.98727C13.5134 5.28446 13.6217 4.5654 13.9099 3.77808C14.1552 3.11107 14.5177 2.49448 14.9799 1.95808C15.4679 1.39341 16.0601 0.930576 16.7233 0.59552C17.4297 0.227458 18.1031 0.0283955 18.7469 -0.000854491C18.8303 0.735271 18.7469 1.45921 18.4796 2.24165C18.2322 2.93331 17.8704 3.57734 17.4096 4.14615C16.9393 4.71159 16.3621 5.17622 15.7119 5.51277L15.7328 5.51358Z" fill="black"/>
</g>
<defs>
<clipPath id="clip0_296_6939">
<rect width="25.6858" height="26" fill="white" transform="translate(0.820312)"/>
</clipPath>
</defs>
</svg>
