<svg width="24" height="24" viewBox="0 0 24 24" fill="none" xmlns="http://www.w3.org/2000/svg">
<path d="M5.53048 14.4656L4.71768 17.537L1.74689 17.6006C0.85906 15.9338 0.355469 14.0266 0.355469 12C0.355469 10.0403 0.826314 8.1922 1.66092 6.56494L1.66156 6.56494L4.30639 7.05576L5.46499 9.71689C5.2225 10.4325 5.09033 11.2007 5.09033 12C5.09042 12.8675 5.24567 13.6987 5.53048 14.4656Z" fill="#FBBB00"/>
<path d="M23.5018 9.79211C23.6359 10.507 23.7058 11.2453 23.7058 11.9999C23.7058 12.846 23.6179 13.6713 23.4505 14.4675C22.8821 17.1765 21.397 19.5421 19.3398 21.2161L19.3391 21.2155L16.0078 21.0434L15.5363 18.0642C16.9014 17.2538 17.9683 15.9856 18.5302 14.4675L12.2871 14.4675L12.2871 9.79211L18.6213 9.79211L23.5018 9.79211Z" fill="#518EF8"/>
<path d="M19.3387 21.2156L19.3393 21.2162C17.3385 22.8441 14.7968 23.8181 12.03 23.8181C7.58377 23.8181 3.71809 21.3026 1.74609 17.6006L5.52969 14.4656C6.51566 17.1292 9.05409 19.0253 12.03 19.0253C13.3092 19.0253 14.5075 18.6753 15.5358 18.0643L19.3387 21.2156Z" fill="#28B446"/>
<path d="M19.4824 2.90253L15.7001 6.03693C14.6359 5.36357 13.3778 4.97459 12.0301 4.97459C8.98677 4.97459 6.40086 6.95769 5.46427 9.71682L1.66079 6.56487L1.66016 6.56487C3.60328 2.77267 7.51772 0.181763 12.0301 0.181763C14.8629 0.181763 17.4604 1.2032 19.4824 2.90253Z" fill="#F14336"/>
</svg>
